<?xml version="1.0" encoding="utf-8"?>
<!-- Generator: Adobe Illustrator 21.0.0, SVG Export Plug-In . SVG Version: 6.00 Build 0)  -->
<svg version="1.1" id="Layer_1" xmlns="http://www.w3.org/2000/svg" xmlns:xlink="http://www.w3.org/1999/xlink" x="0px" y="0px"
	 viewBox="0 0 403 535" style="enable-background:new 0 0 403 535;" xml:space="preserve">
<style type="text/css">
	.st0{clip-path:url(#SVGID_2_);}
	.st1{clip-path:url(#SVGID_4_);fill:#FFFFFF;}
	.st2{clip-path:url(#SVGID_6_);}
	.st3{clip-path:url(#SVGID_8_);fill:#FFFFFF;}
	.st4{clip-path:url(#SVGID_10_);}
	.st5{clip-path:url(#SVGID_12_);fill:#FFFFFF;}
	.st6{clip-path:url(#SVGID_14_);}
	.st7{clip-path:url(#SVGID_16_);fill:#FFFFFF;}
</style>
<g>
	<g>
		<defs>
			<rect id="SVGID_1_" width="201.5" height="267.5"/>
		</defs>
		<clipPath id="SVGID_2_">
			<use xlink:href="#SVGID_1_"  style="overflow:visible;"/>
		</clipPath>
		<g class="st0">
			<g>
				<defs>
					<rect id="SVGID_3_" x="-1.8" width="205.3" height="267.6"/>
				</defs>
				<clipPath id="SVGID_4_">
					<use xlink:href="#SVGID_3_"  style="overflow:visible;"/>
				</clipPath>
				<path class="st1" d="M304.6,0.3L304.5,0l0.1-0.3h-0.3l-25.1-43.5l-25.1-43.5l0.2-0.3H254l-0.1-0.3l-0.1,0.3H153.2l-0.1-0.3
					l-0.1,0.3h-0.3l0.1,0.2L103.5-1.8c-0.2-0.1-0.5-0.1-0.7-0.1c-1.1,0-1.9,0.9-1.9,1.9s0.9,1.9,1.9,1.9c0.3,0,0.5-0.1,0.7-0.1
					l24.2,42l1.4,2.5H72.5L98.2,1.8c0.2,0.1,0.5,0.1,0.7,0.1c1.1,0,1.9-0.9,1.9-1.9s-0.9-1.9-1.9-1.9c-0.3,0-0.5,0.1-0.7,0.1
					l-24.2-42L48.8-87.3l0.2-0.3h-0.3l-0.1-0.3l-0.1,0.3H-52.1l-0.1-0.3l-0.1,0.3h-0.3l0.1,0.2l-50.2,87.1h-0.3l0.1,0.2l-0.1,0.3
					h0.3l25.1,43.5l25.1,43.5l-0.2,0.3h0.3l0.1,0.3l0.1-0.3h78.5L0.8,132c-0.2-0.1-0.5-0.1-0.7-0.1c-1.1,0-1.9,0.9-1.9,1.9
					c0,1.1,0.9,1.9,1.9,1.9c0.3,0,0.5-0.1,0.7-0.1l24.2,42l1.4,2.5h-78.6l-0.1-0.3l-0.1,0.3h-0.3l0.1,0.2l-50.2,87.1h-0.3l0.1,0.2
					l-0.1,0.3h0.3l25.1,43.5l25.1,43.5l-0.2,0.3h0.3l0.1,0.3l0.1-0.3H48.4l0.1,0.3l0.1-0.3H49l-0.1-0.2l49.3-85.5
					c0.2,0.1,0.5,0.1,0.7,0.1c1.1,0,1.9-0.9,1.9-1.9c0-1.1-0.9-1.9-1.9-1.9c-0.3,0-0.5,0.1-0.7,0.1l-24.2-42l-1.4-2.5h56.6
					l-25.7,44.5c-0.2-0.1-0.5-0.1-0.7-0.1c-1.1,0-1.9,0.9-1.9,1.9c0,1.1,0.9,1.9,1.9,1.9c0.3,0,0.5-0.1,0.7-0.1l24.2,42l25.1,43.5
					l-0.2,0.3h0.3l0.1,0.3l0.1-0.3h100.4l0.1,0.3l0.1-0.3h0.3l-0.1-0.2l50.2-87.1h0.3l-0.1-0.2l0.1-0.3h-0.3l-25.1-43.5l-25.1-43.5
					l0.2-0.3H254l-0.1-0.3l-0.1,0.3h-78.5l25.7-44.5c0.2,0.1,0.5,0.1,0.7,0.1c1.1,0,1.9-0.9,1.9-1.9c0-1.1-0.9-1.9-1.9-1.9
					c-0.3,0-0.5,0.1-0.7,0.1l-24.2-42l-1.4-2.5h78.6l0.1,0.3l0.1-0.3h0.3l-0.1-0.2l50.2-87.1H304.6z M303.8-0.3h-98.4
					c-0.1-0.5-0.3-1-0.7-1.3L216-21.2l12.9-22.3l24.9-43.2l25,43.2L303.8-0.3z M155,87c-0.1-0.5-0.3-0.9-0.7-1.3l9.6-16.7l10.4,18
					H155z M149.3,46.8c0.1,0.5,0.3,0.9,0.7,1.3l-9.6,16.7l-10.4-18H149.3z M150.5,48.3c0.2,0.1,0.5,0.1,0.7,0.1
					c0.3,0,0.5-0.1,0.7-0.1l11.7,20.3l-9.8,17c-0.2-0.1-0.5-0.1-0.7-0.1c-0.3,0-0.5,0.1-0.7,0.1l-11.7-20.3L150.5,48.3z M253.4-87
					l-37.7,65.3L204.2-1.8c-0.2-0.1-0.5-0.1-0.7-0.1c-0.3,0-0.5,0.1-0.7,0.1l-24.2-42l-12.7-21.9L153.5-87H253.4z M153.1-86.8
					l12.4,21.4l36.8,63.9c-0.4,0.3-0.6,0.7-0.7,1.3h-96.9c-0.1-0.5-0.3-1-0.7-1.3L153.1-86.8z M128.1,43.5l-24.2-42
					c0.4-0.3,0.7-0.7,0.7-1.3h96.9c0.1,0.5,0.3,0.9,0.7,1.3l-38.4,66.6l-11.6-20c0.5-0.3,0.8-0.9,0.8-1.5c0-1.1-0.9-1.9-1.9-1.9
					c-1,0-1.8,0.7-1.9,1.7h-19.6L128.1,43.5z M129.4,46.8l10.7,18.5l-27,46.8l-11.6,20c-0.2-0.1-0.5-0.1-0.7-0.1
					c-0.3,0-0.5,0.1-0.7,0.1L75.9,90L63.3,68.3l-1.8-3.1l10.7-18.5H129.4z M52.3,220.8c-0.1-0.5-0.3-0.9-0.7-1.3l9.6-16.7l10.4,18
					H52.3z M46.6,180.6c0.1,0.5,0.3,0.9,0.7,1.3l-9.6,16.7l-10.4-18H46.6z M47.8,182.1c0.2,0.1,0.5,0.1,0.7,0.1
					c0.3,0,0.5-0.1,0.7-0.1L61,202.4l-9.8,16.9c-0.2-0.1-0.5-0.1-0.7-0.1c-0.3,0-0.5,0.1-0.7,0.1L38,199L47.8,182.1z M27.3,87
					l10.4-18l9.6,16.7c-0.4,0.3-0.7,0.7-0.7,1.3H27.3z M48.5,85.4c-0.3,0-0.5,0.1-0.7,0.1l-9.8-17l11.7-20.3
					c0.2,0.1,0.5,0.2,0.8,0.2c0.3,0,0.5-0.1,0.7-0.1l9.8,17L49.3,85.5C49.1,85.4,48.8,85.4,48.5,85.4z M71.6,46.8l-10.4,18L51.6,48
					c0.4-0.3,0.7-0.7,0.7-1.3H71.6z M71.9,46.3H52.3c-0.1-0.9-0.9-1.7-1.9-1.7c-1.1,0-1.9,0.9-1.9,1.9c0,0.6,0.3,1.2,0.7,1.5
					L37.7,68l-1.7-2.9L23.6,43.5L11,21.7L-0.7,1.5C-0.3,1.2,0,0.8,0.1,0.3H97c0.1,0.5,0.3,1,0.7,1.3L71.9,46.3z M97.7-1.5
					c-0.4,0.3-0.7,0.7-0.7,1.3H0.1C0-0.8-0.3-1.2-0.7-1.5l11.5-19.9l12.8-22.1l24.9-43.2l25,43.2L97.7-1.5z M48.1-87L10.5-21.9
					L-1.1-1.8c-0.2-0.1-0.5-0.1-0.7-0.1c-0.3,0-0.5,0.1-0.7,0.1l-24.2-42l-12.7-21.9L-51.8-87H48.1z M-52.2-86.8l12.4,21.4L-3-1.5
					c-0.4,0.3-0.6,0.7-0.7,1.3h-98.4L-52.2-86.8z M-102.1,0.3h98.4C-3.7,0.8-3.4,1.2-3,1.5l-49.2,85.3l-25-43.2L-102.1,0.3z
					 M-51.7,87L-2.6,1.8c0.2,0.1,0.5,0.1,0.7,0.1c0.3,0,0.5-0.1,0.7-0.1l11.9,20.6l12.4,21.4l12.5,21.6l1.8,3.2L26.8,87H-51.7z
					 M27.1,87.5h19.6c0.1,0.9,0.9,1.7,1.9,1.7c1.1,0,1.9-0.9,1.9-1.9c0-0.6-0.3-1.2-0.7-1.5l11.5-20l1.8,3.1l36.6,63.4
					c-0.4,0.3-0.6,0.7-0.7,1.3H2c-0.1-0.5-0.3-1-0.7-1.3L27.1,87.5z M25.5,177.3l-24.2-42c0.4-0.3,0.7-0.7,0.7-1.3h96.9
					c0.1,0.5,0.3,1,0.7,1.3l-38.4,66.6l-11.6-20c0.5-0.3,0.8-0.9,0.8-1.5c0-1.1-0.9-1.9-1.9-1.9c-1,0-1.8,0.7-1.9,1.7H27.1
					L25.5,177.3z M26.8,180.6L37.4,199l-26.9,46.7l-11.6,20.1c-0.2-0.1-0.5-0.1-0.7-0.1c-0.3,0-0.5,0.1-0.7,0.1l-24.2-42l-12.7-21.9
					l-12.3-21.3H26.8z M-52.2,180.8l12.4,21.4L-3,266.1c-0.4,0.3-0.6,0.7-0.7,1.3h-98.4L-52.2,180.8z M-102.1,267.8h98.4
					c0.1,0.5,0.3,0.9,0.7,1.3l-49.2,85.3l-25-43.2L-102.1,267.8z M-51.7,354.6l49.2-85.3c0.2,0.1,0.5,0.1,0.7,0.1
					c0.3,0,0.5-0.1,0.7-0.1l11.9,20.6l12.4,21.4l12.5,21.6l12.5,21.7H-51.7z M48.6,354.4l-12.5-21.6l-12.5-21.6L11,289.3l-11.6-20.2
					c0.4-0.3,0.7-0.7,0.7-1.3H97c0.1,0.5,0.3,1,0.7,1.3L48.6,354.4z M73.5,224.1l24.2,42c-0.4,0.3-0.7,0.7-0.7,1.3H0.1
					c-0.1-0.5-0.3-1-0.7-1.3l11.5-19.9l12.8-22.1l14.2-24.5l11.6,20c-0.5,0.3-0.8,0.9-0.8,1.5c0,1.1,0.9,1.9,1.9,1.9
					c1,0,1.8-0.7,1.9-1.7h19.6L73.5,224.1z M72.2,220.8l-10.7-18.5l38.5-66.8c0.2,0.1,0.5,0.1,0.7,0.1c0.3,0,0.5-0.1,0.7-0.1
					l11.9,20.6l12.4,21.4l12.3,21.4l2,3.4l-10.7,18.5H72.2z M174.3,180.6l-10.4,18l-9.6-16.7c0.4-0.3,0.7-0.7,0.7-1.3H174.3z
					 M153.1,182.2c0.3,0,0.5-0.1,0.7-0.1l9.8,17l-11.7,20.3c-0.2-0.1-0.5-0.2-0.8-0.2c-0.3,0-0.5,0.1-0.7,0.1l-9.8-17l11.7-20.3
					C152.6,182.2,152.8,182.2,153.1,182.2z M130,220.8l10.4-18l9.6,16.7c-0.4,0.3-0.7,0.7-0.7,1.3H130z M129.7,221.3h19.6
					c0.1,0.9,0.9,1.7,1.9,1.7c1.1,0,1.9-0.9,1.9-1.9c0-0.6-0.3-1.2-0.7-1.5l11.5-20l1.5,2.7l36.8,63.9c-0.4,0.3-0.6,0.7-0.7,1.3
					h-96.9c-0.1-0.5-0.3-1-0.7-1.3L129.7,221.3z M103.9,269.1c0.4-0.3,0.7-0.7,0.7-1.3h96.9c0.1,0.5,0.3,0.9,0.7,1.3l-49.2,85.3
					l-25-43.2L103.9,269.1z M153.6,354.6l49.2-85.3c0.2,0.1,0.5,0.1,0.7,0.1c0.3,0,0.5-0.1,0.7-0.1l11.8,20.4l12.5,21.6l12.6,21.8
					l12.4,21.5H153.6z M253.9,354.4l-12.6-21.8l-12.4-21.4l-12.5-21.6l-11.8-20.4c0.4-0.3,0.7-0.7,0.7-1.3h98.4L253.9,354.4z
					 M303.8,267.3h-98.4c-0.1-0.5-0.3-1-0.7-1.3l11.3-19.7l12.9-22.3l24.9-43.2l25,43.2L303.8,267.3z M253.4,180.6l-37.7,65.3
					l-11.5,19.9c-0.2-0.1-0.5-0.1-0.7-0.1c-0.3,0-0.5,0.1-0.7,0.1l-24.2-42l-12.7-21.9l-1.6-2.8l10.7-18.5H253.4z M174.6,180.1H155
					c-0.1-0.9-0.9-1.7-1.9-1.7c-1.1,0-1.9,0.9-1.9,1.9c0,0.6,0.3,1.2,0.7,1.5l-11.5,20l-1.9-3.3l-12.2-21.2l-12.5-21.6L102,135.3
					c0.4-0.3,0.7-0.7,0.7-1.3h96.9c0.1,0.5,0.3,1,0.7,1.3L174.6,180.1z M176.2,90.3l24.2,42c-0.4,0.3-0.7,0.7-0.7,1.3h-96.9
					c-0.1-0.5-0.3-1-0.7-1.3l11.4-19.8l12.8-22.2l14.2-24.5l11.6,20c-0.5,0.3-0.8,0.9-0.8,1.5c0,1.1,0.9,1.9,1.9,1.9
					c1,0,1.8-0.7,1.9-1.7h19.6L176.2,90.3z M174.9,87l-10.7-18.5l38.5-66.8c0.2,0.1,0.5,0.1,0.7,0.1c0.3,0,0.5-0.1,0.7-0.1
					l11.8,20.4l12.5,21.6L241,65.6L253.4,87H174.9z M253.9,86.8l-12.6-21.9l-12.4-21.4l-12.5-21.6L204.6,1.5
					c0.4-0.3,0.7-0.7,0.7-1.3h98.4L253.9,86.8z"/>
			</g>
		</g>
	</g>
</g>
<g>
	<g>
		<defs>
			<rect id="SVGID_5_" x="201.5" width="201.5" height="267.5"/>
		</defs>
		<clipPath id="SVGID_6_">
			<use xlink:href="#SVGID_5_"  style="overflow:visible;"/>
		</clipPath>
		<g class="st2">
			<g>
				<defs>
					<rect id="SVGID_7_" x="199.7" width="205.3" height="267.6"/>
				</defs>
				<clipPath id="SVGID_8_">
					<use xlink:href="#SVGID_7_"  style="overflow:visible;"/>
				</clipPath>
				<path class="st3" d="M506.1,0.3L506,0l0.1-0.3h-0.3l-25.1-43.5l-25.1-43.5l0.2-0.3h-0.3l-0.1-0.3l-0.1,0.3H354.7l-0.1-0.3
					l-0.1,0.3h-0.3l0.1,0.2L305-1.8c-0.2-0.1-0.5-0.1-0.7-0.1c-1.1,0-1.9,0.9-1.9,1.9s0.9,1.9,1.9,1.9c0.3,0,0.5-0.1,0.7-0.1
					l24.2,42l1.4,2.5H274l25.7-44.5c0.2,0.1,0.5,0.1,0.7,0.1c1.1,0,1.9-0.9,1.9-1.9s-0.9-1.9-1.9-1.9c-0.3,0-0.5,0.1-0.7,0.1
					l-24.2-42l-25.1-43.5l0.2-0.3h-0.3l-0.1-0.3l-0.1,0.3H149.4l-0.1-0.3l-0.1,0.3h-0.3l0.1,0.2L98.8-0.3h-0.3L98.6,0l-0.1,0.3h0.3
					l25.1,43.5L149,87.3l-0.2,0.3h0.3l0.1,0.3l0.1-0.3H228L202.3,132c-0.2-0.1-0.5-0.1-0.7-0.1c-1.1,0-1.9,0.9-1.9,1.9
					c0,1.1,0.9,1.9,1.9,1.9c0.3,0,0.5-0.1,0.7-0.1l24.2,42l1.4,2.5h-78.6l-0.1-0.3l-0.1,0.3h-0.3l0.1,0.2l-50.2,87.1h-0.3l0.1,0.2
					l-0.1,0.3h0.3l25.1,43.5l25.1,43.5l-0.2,0.3h0.3l0.1,0.3l0.1-0.3h100.4l0.1,0.3l0.1-0.3h0.3l-0.1-0.2l49.3-85.5
					c0.2,0.1,0.5,0.1,0.7,0.1c1.1,0,1.9-0.9,1.9-1.9c0-1.1-0.9-1.9-1.9-1.9c-0.3,0-0.5,0.1-0.7,0.1l-24.2-42l-1.4-2.5h56.6
					L305,265.8c-0.2-0.1-0.5-0.1-0.7-0.1c-1.1,0-1.9,0.9-1.9,1.9c0,1.1,0.9,1.9,1.9,1.9c0.3,0,0.5-0.1,0.7-0.1l24.2,42l25.1,43.5
					l-0.2,0.3h0.3l0.1,0.3l0.1-0.3h100.4l0.1,0.3l0.1-0.3h0.3l-0.1-0.2l50.2-87.1h0.3l-0.1-0.2l0.1-0.3h-0.3l-25.1-43.5l-25.1-43.5
					l0.2-0.3h-0.3l-0.1-0.3l-0.1,0.3h-78.5l25.7-44.5c0.2,0.1,0.5,0.1,0.7,0.1c1.1,0,1.9-0.9,1.9-1.9c0-1.1-0.9-1.9-1.9-1.9
					c-0.3,0-0.5,0.1-0.7,0.1l-24.2-42l-1.4-2.5h78.6l0.1,0.3l0.1-0.3h0.3l-0.1-0.2l50.2-87.1H506.1z M505.3-0.3h-98.4
					c-0.1-0.5-0.3-1-0.7-1.3l11.3-19.7l12.9-22.3l24.9-43.2l25,43.2L505.3-0.3z M356.5,87c-0.1-0.5-0.3-0.9-0.7-1.3l9.6-16.7
					l10.4,18H356.5z M350.8,46.8c0.1,0.5,0.3,0.9,0.7,1.3l-9.6,16.7l-10.4-18H350.8z M352,48.3c0.2,0.1,0.5,0.1,0.7,0.1
					c0.3,0,0.5-0.1,0.7-0.1l11.7,20.3l-9.8,17c-0.2-0.1-0.5-0.1-0.7-0.1c-0.3,0-0.5,0.1-0.7,0.1l-11.7-20.3L352,48.3z M454.9-87
					l-37.7,65.3L405.7-1.8c-0.2-0.1-0.5-0.1-0.7-0.1c-0.3,0-0.5,0.1-0.7,0.1l-24.2-42l-12.7-21.9L355-87H454.9z M354.6-86.8
					l12.4,21.4l36.8,63.9c-0.4,0.3-0.6,0.7-0.7,1.3h-96.9c-0.1-0.5-0.3-1-0.7-1.3L354.6-86.8z M329.6,43.5l-24.2-42
					c0.4-0.3,0.7-0.7,0.7-1.3h96.9c0.1,0.5,0.3,0.9,0.7,1.3l-38.4,66.6l-11.6-20c0.5-0.3,0.8-0.9,0.8-1.5c0-1.1-0.9-1.9-1.9-1.9
					c-1,0-1.8,0.7-1.9,1.7h-19.6L329.6,43.5z M330.9,46.8l10.7,18.5l-27,46.8L303,132c-0.2-0.1-0.5-0.1-0.7-0.1
					c-0.3,0-0.5,0.1-0.7,0.1l-24.2-42l-12.5-21.7l-1.8-3.1l10.7-18.5H330.9z M253.8,220.8c-0.1-0.5-0.3-0.9-0.7-1.3l9.6-16.7
					l10.4,18H253.8z M248.1,180.6c0.1,0.5,0.3,0.9,0.7,1.3l-9.6,16.7l-10.4-18H248.1z M249.3,182.1c0.2,0.1,0.5,0.1,0.7,0.1
					c0.3,0,0.5-0.1,0.7-0.1l11.7,20.3l-9.8,16.9c-0.2-0.1-0.5-0.1-0.7-0.1c-0.3,0-0.5,0.1-0.7,0.1L239.5,199L249.3,182.1z M228.8,87
					l10.4-18l9.6,16.7c-0.4,0.3-0.7,0.7-0.7,1.3H228.8z M250,85.4c-0.3,0-0.5,0.1-0.7,0.1l-9.8-17l11.7-20.3
					c0.2,0.1,0.5,0.2,0.8,0.2c0.3,0,0.5-0.1,0.7-0.1l9.8,17l-11.7,20.3C250.6,85.4,250.3,85.4,250,85.4z M273.1,46.8l-10.4,18
					L253.1,48c0.4-0.3,0.7-0.7,0.7-1.3H273.1z M273.4,46.3h-19.6c-0.1-0.9-0.9-1.7-1.9-1.7c-1.1,0-1.9,0.9-1.9,1.9
					c0,0.6,0.3,1.2,0.7,1.5l-11.5,20l-1.7-2.9l-12.5-21.6l-12.6-21.8L200.8,1.5c0.4-0.3,0.7-0.7,0.7-1.3h96.9c0.1,0.5,0.3,1,0.7,1.3
					L273.4,46.3z M299.2-1.5c-0.4,0.3-0.7,0.7-0.7,1.3h-96.9c-0.1-0.5-0.3-1-0.7-1.3l11.5-19.9l12.8-22.1L250-86.8l25,43.2
					L299.2-1.5z M249.6-87L212-21.9L200.4-1.8c-0.2-0.1-0.5-0.1-0.7-0.1c-0.3,0-0.5,0.1-0.7,0.1l-24.2-42L162-65.7L149.7-87H249.6z
					 M149.3-86.8l12.4,21.4l36.8,63.9c-0.4,0.3-0.6,0.7-0.7,1.3H99.4L149.3-86.8z M99.4,0.3h98.4c0.1,0.5,0.3,0.9,0.7,1.3
					l-49.2,85.3l-25-43.2L99.4,0.3z M149.8,87l49.2-85.3c0.2,0.1,0.5,0.1,0.7,0.1c0.3,0,0.5-0.1,0.7-0.1l11.9,20.6l12.4,21.4
					l12.5,21.6l1.8,3.2L228.3,87H149.8z M228.6,87.5h19.6c0.1,0.9,0.9,1.7,1.9,1.7c1.1,0,1.9-0.9,1.9-1.9c0-0.6-0.3-1.2-0.7-1.5
					l11.5-20l1.8,3.1l36.6,63.4c-0.4,0.3-0.6,0.7-0.7,1.3h-96.9c-0.1-0.5-0.3-1-0.7-1.3L228.6,87.5z M227,177.3l-24.2-42
					c0.4-0.3,0.7-0.7,0.7-1.3h96.9c0.1,0.5,0.3,1,0.7,1.3l-38.4,66.6l-11.6-20c0.5-0.3,0.8-0.9,0.8-1.5c0-1.1-0.9-1.9-1.9-1.9
					c-1,0-1.8,0.7-1.9,1.7h-19.6L227,177.3z M228.3,180.6l10.7,18.5L212,245.7l-11.6,20.1c-0.2-0.1-0.5-0.1-0.7-0.1
					c-0.3,0-0.5,0.1-0.7,0.1l-24.2-42L162,201.9l-12.3-21.3H228.3z M149.3,180.8l12.4,21.4l36.8,63.9c-0.4,0.3-0.6,0.7-0.7,1.3H99.4
					L149.3,180.8z M99.4,267.8h98.4c0.1,0.5,0.3,0.9,0.7,1.3l-49.2,85.3l-25-43.2L99.4,267.8z M149.8,354.6l49.2-85.3
					c0.2,0.1,0.5,0.1,0.7,0.1c0.3,0,0.5-0.1,0.7-0.1l11.9,20.6l12.4,21.4l12.5,21.6l12.5,21.7H149.8z M250.1,354.4l-12.5-21.6
					l-12.5-21.6l-12.6-21.8l-11.6-20.2c0.4-0.3,0.7-0.7,0.7-1.3h96.9c0.1,0.5,0.3,1,0.7,1.3L250.1,354.4z M275,224.1l24.2,42
					c-0.4,0.3-0.7,0.7-0.7,1.3h-96.9c-0.1-0.5-0.3-1-0.7-1.3l11.5-19.9l12.8-22.1l14.2-24.5l11.6,20c-0.5,0.3-0.8,0.9-0.8,1.5
					c0,1.1,0.9,1.9,1.9,1.9c1,0,1.8-0.7,1.9-1.7h19.6L275,224.1z M273.7,220.8L263,202.4l38.5-66.8c0.2,0.1,0.5,0.1,0.7,0.1
					c0.3,0,0.5-0.1,0.7-0.1l11.9,20.6l12.4,21.4l12.3,21.4l2,3.4l-10.7,18.5H273.7z M375.8,180.6l-10.4,18l-9.6-16.7
					c0.4-0.3,0.7-0.7,0.7-1.3H375.8z M354.6,182.2c0.3,0,0.5-0.1,0.7-0.1l9.8,17l-11.7,20.3c-0.2-0.1-0.5-0.2-0.8-0.2
					c-0.3,0-0.5,0.1-0.7,0.1l-9.8-17l11.7-20.3C354.1,182.2,354.3,182.2,354.6,182.2z M331.5,220.8l10.4-18l9.6,16.7
					c-0.4,0.3-0.7,0.7-0.7,1.3H331.5z M331.2,221.3h19.6c0.1,0.9,0.9,1.7,1.9,1.7c1.1,0,1.9-0.9,1.9-1.9c0-0.6-0.3-1.2-0.7-1.5
					l11.5-20l1.5,2.7l36.8,63.9c-0.4,0.3-0.6,0.7-0.7,1.3h-96.9c-0.1-0.5-0.3-1-0.7-1.3L331.2,221.3z M305.4,269.1
					c0.4-0.3,0.7-0.7,0.7-1.3h96.9c0.1,0.5,0.3,0.9,0.7,1.3l-49.2,85.3l-25-43.2L305.4,269.1z M355.1,354.6l49.2-85.3
					c0.2,0.1,0.5,0.1,0.7,0.1c0.3,0,0.5-0.1,0.7-0.1l11.8,20.4l12.5,21.6l12.6,21.8l12.4,21.5H355.1z M455.4,354.4l-12.6-21.8
					l-12.4-21.4l-12.5-21.6l-11.8-20.4c0.4-0.3,0.7-0.7,0.7-1.3h98.4L455.4,354.4z M505.3,267.3h-98.4c-0.1-0.5-0.3-1-0.7-1.3
					l11.3-19.7l12.9-22.3l24.9-43.2l25,43.2L505.3,267.3z M454.9,180.6l-37.7,65.3l-11.5,19.9c-0.2-0.1-0.5-0.1-0.7-0.1
					c-0.3,0-0.5,0.1-0.7,0.1l-24.2-42l-12.7-21.9l-1.6-2.8l10.7-18.5H454.9z M376.1,180.1h-19.6c-0.1-0.9-0.9-1.7-1.9-1.7
					c-1.1,0-1.9,0.9-1.9,1.9c0,0.6,0.3,1.2,0.7,1.5l-11.5,20l-1.9-3.3l-12.2-21.2l-12.5-21.6l-11.8-20.4c0.4-0.3,0.7-0.7,0.7-1.3
					h96.9c0.1,0.5,0.3,1,0.7,1.3L376.1,180.1z M377.7,90.3l24.2,42c-0.4,0.3-0.7,0.7-0.7,1.3h-96.9c-0.1-0.5-0.3-1-0.7-1.3
					l11.4-19.8l12.8-22.2l14.2-24.5l11.6,20c-0.5,0.3-0.8,0.9-0.8,1.5c0,1.1,0.9,1.9,1.9,1.9c1,0,1.8-0.7,1.9-1.7h19.6L377.7,90.3z
					 M376.4,87l-10.7-18.5l38.5-66.8c0.2,0.1,0.5,0.1,0.7,0.1c0.3,0,0.5-0.1,0.7-0.1l11.8,20.4l12.5,21.6l12.6,21.8L454.9,87H376.4z
					 M455.4,86.8l-12.6-21.9l-12.4-21.4l-12.5-21.6L406.1,1.5c0.4-0.3,0.7-0.7,0.7-1.3h98.4L455.4,86.8z"/>
			</g>
		</g>
	</g>
</g>
<g>
	<g>
		<defs>
			<rect id="SVGID_9_" y="267.5" width="201.5" height="267.5"/>
		</defs>
		<clipPath id="SVGID_10_">
			<use xlink:href="#SVGID_9_"  style="overflow:visible;"/>
		</clipPath>
		<g class="st4">
			<g>
				<defs>
					<rect id="SVGID_11_" x="-1.8" y="267.5" width="205.3" height="267.6"/>
				</defs>
				<clipPath id="SVGID_12_">
					<use xlink:href="#SVGID_11_"  style="overflow:visible;"/>
				</clipPath>
				<path class="st5" d="M304.6,267.8l-0.1-0.2l0.1-0.3h-0.3l-25.1-43.5l-25.1-43.5l0.2-0.3H254l-0.1-0.3l-0.1,0.3H153.2l-0.1-0.3
					l-0.1,0.3h-0.3l0.1,0.2l-49.3,85.5c-0.2-0.1-0.5-0.1-0.7-0.1c-1.1,0-1.9,0.9-1.9,1.9s0.9,1.9,1.9,1.9c0.3,0,0.5-0.1,0.7-0.1
					l24.2,42l1.4,2.5H72.5l25.7-44.5c0.2,0.1,0.5,0.1,0.7,0.1c1.1,0,1.9-0.9,1.9-1.9s-0.9-1.9-1.9-1.9c-0.3,0-0.5,0.1-0.7,0.1
					l-24.2-42l-25.1-43.5L49,180h-0.3l-0.1-0.3l-0.1,0.3H-52.1l-0.1-0.3l-0.1,0.3h-0.3l0.1,0.2l-50.2,87.1h-0.3l0.1,0.2l-0.1,0.3
					h0.3l25.1,43.5l25.1,43.5l-0.2,0.3h0.3l0.1,0.3l0.1-0.3h78.5L0.8,399.5c-0.2-0.1-0.5-0.1-0.7-0.1c-1.1,0-1.9,0.9-1.9,1.9
					c0,1.1,0.9,1.9,1.9,1.9c0.3,0,0.5-0.1,0.7-0.1l24.2,42l1.4,2.5h-78.6l-0.1-0.3l-0.1,0.3h-0.3l0.1,0.2l-50.2,87.1h-0.3l0.1,0.2
					l-0.1,0.3h0.3l25.1,43.5l25.1,43.5l-0.2,0.3h0.3l0.1,0.3l0.1-0.3H48.4l0.1,0.3l0.1-0.3H49l-0.1-0.2l49.3-85.5
					c0.2,0.1,0.5,0.1,0.7,0.1c1.1,0,1.9-0.9,1.9-1.9c0-1.1-0.9-1.9-1.9-1.9c-0.3,0-0.5,0.1-0.7,0.1l-24.2-42l-1.4-2.5h56.6
					l-25.7,44.5c-0.2-0.1-0.5-0.1-0.7-0.1c-1.1,0-1.9,0.9-1.9,1.9c0,1.1,0.9,1.9,1.9,1.9c0.3,0,0.5-0.1,0.7-0.1l24.2,42l25.1,43.5
					l-0.2,0.3h0.3l0.1,0.3l0.1-0.3h100.4l0.1,0.3l0.1-0.3h0.3l-0.1-0.2l50.2-87.1h0.3l-0.1-0.2l0.1-0.3h-0.3l-25.1-43.5l-25.1-43.5
					l0.2-0.3H254l-0.1-0.3l-0.1,0.3h-78.5l25.7-44.5c0.2,0.1,0.5,0.1,0.7,0.1c1.1,0,1.9-0.9,1.9-1.9c0-1.1-0.9-1.9-1.9-1.9
					c-0.3,0-0.5,0.1-0.7,0.1l-24.2-42l-1.4-2.5h78.6l0.1,0.3l0.1-0.3h0.3l-0.1-0.2l50.2-87.1H304.6z M303.8,267.3h-98.4
					c-0.1-0.5-0.3-1-0.7-1.3l11.3-19.7l12.9-22.3l24.9-43.2l25,43.2L303.8,267.3z M155,354.5c-0.1-0.5-0.3-0.9-0.7-1.3l9.6-16.7
					l10.4,18H155z M149.3,314.3c0.1,0.5,0.3,0.9,0.7,1.3l-9.6,16.7l-10.4-18H149.3z M150.5,315.8c0.2,0.1,0.5,0.1,0.7,0.1
					c0.3,0,0.5-0.1,0.7-0.1l11.7,20.3l-9.8,17c-0.2-0.1-0.5-0.1-0.7-0.1c-0.3,0-0.5,0.1-0.7,0.1l-11.7-20.3L150.5,315.8z
					 M253.4,180.5l-37.7,65.3l-11.5,19.9c-0.2-0.1-0.5-0.1-0.7-0.1c-0.3,0-0.5,0.1-0.7,0.1l-24.2-42l-12.7-21.9l-12.3-21.3H253.4z
					 M153.1,180.7l12.4,21.4l36.8,63.9c-0.4,0.3-0.6,0.7-0.7,1.3h-96.9c-0.1-0.5-0.3-1-0.7-1.3L153.1,180.7z M128.1,311l-24.2-42
					c0.4-0.3,0.7-0.7,0.7-1.3h96.9c0.1,0.5,0.3,0.9,0.7,1.3l-38.4,66.6l-11.6-20c0.5-0.3,0.8-0.9,0.8-1.5c0-1.1-0.9-1.9-1.9-1.9
					c-1,0-1.8,0.7-1.9,1.7h-19.6L128.1,311z M129.4,314.3l10.7,18.5l-27,46.8l-11.6,20c-0.2-0.1-0.5-0.1-0.7-0.1
					c-0.3,0-0.5,0.1-0.7,0.1l-24.2-42l-12.5-21.7l-1.8-3.1l10.7-18.5H129.4z M52.3,488.3c-0.1-0.5-0.3-0.9-0.7-1.3l9.6-16.7l10.4,18
					H52.3z M46.6,448.1c0.1,0.5,0.3,0.9,0.7,1.3L37.7,466l-10.4-18H46.6z M47.8,449.6c0.2,0.1,0.5,0.1,0.7,0.1
					c0.3,0,0.5-0.1,0.7-0.1L61,469.9l-9.8,16.9c-0.2-0.1-0.5-0.1-0.7-0.1c-0.3,0-0.5,0.1-0.7,0.1L38,466.5L47.8,449.6z M27.3,354.5
					l10.4-18l9.6,16.7c-0.4,0.3-0.7,0.7-0.7,1.3H27.3z M48.5,352.9c-0.3,0-0.5,0.1-0.7,0.1L38,336l11.7-20.3
					c0.2,0.1,0.5,0.2,0.8,0.2c0.3,0,0.5-0.1,0.7-0.1l9.8,17L49.3,353C49.1,352.9,48.8,352.9,48.5,352.9z M71.6,314.3l-10.4,18
					l-9.6-16.7c0.4-0.3,0.7-0.7,0.7-1.3H71.6z M71.9,313.8H52.3c-0.1-0.9-0.9-1.7-1.9-1.7c-1.1,0-1.9,0.9-1.9,1.9
					c0,0.6,0.3,1.2,0.7,1.5l-11.5,20l-1.7-2.9L23.6,311L11,289.2L-0.7,269c0.4-0.3,0.7-0.7,0.7-1.3H97c0.1,0.5,0.3,1,0.7,1.3
					L71.9,313.8z M97.7,266c-0.4,0.3-0.7,0.7-0.7,1.3H0.1c-0.1-0.5-0.3-1-0.7-1.3l11.5-19.9L23.6,224l24.9-43.2l25,43.2L97.7,266z
					 M48.1,180.5l-37.6,65.1l-11.6,20.1c-0.2-0.1-0.5-0.1-0.7-0.1c-0.3,0-0.5,0.1-0.7,0.1l-24.2-42l-12.7-21.9l-12.3-21.3H48.1z
					 M-52.2,180.7l12.4,21.4L-3,266c-0.4,0.3-0.6,0.7-0.7,1.3h-98.4L-52.2,180.7z M-102.1,267.8h98.4c0.1,0.5,0.3,0.9,0.7,1.3
					l-49.2,85.3l-25-43.2L-102.1,267.8z M-51.7,354.5l49.2-85.3c0.2,0.1,0.5,0.1,0.7,0.1c0.3,0,0.5-0.1,0.7-0.1l11.9,20.6l12.4,21.4
					l12.5,21.6l1.8,3.2l-10.7,18.5H-51.7z M27.1,355h19.6c0.1,0.9,0.9,1.7,1.9,1.7c1.1,0,1.9-0.9,1.9-1.9c0-0.6-0.3-1.2-0.7-1.5
					l11.5-20l1.8,3.1l36.6,63.4c-0.4,0.3-0.6,0.7-0.7,1.3H2c-0.1-0.5-0.3-1-0.7-1.3L27.1,355z M25.5,444.8l-24.2-42
					c0.4-0.3,0.7-0.7,0.7-1.3h96.9c0.1,0.5,0.3,1,0.7,1.3l-38.4,66.6l-11.6-20c0.5-0.3,0.8-0.9,0.8-1.5c0-1.1-0.9-1.9-1.9-1.9
					c-1,0-1.8,0.7-1.9,1.7H27.1L25.5,444.8z M26.8,448.1l10.7,18.5l-26.9,46.7l-11.6,20.1c-0.2-0.1-0.5-0.1-0.7-0.1
					c-0.3,0-0.5,0.1-0.7,0.1l-24.2-42l-12.7-21.9l-12.3-21.3H26.8z M-52.2,448.3l12.4,21.4L-3,533.6c-0.4,0.3-0.6,0.7-0.7,1.3h-98.4
					L-52.2,448.3z M-102.1,535.3h98.4c0.1,0.5,0.3,0.9,0.7,1.3l-49.2,85.3l-25-43.2L-102.1,535.3z M-51.7,622.1l49.2-85.3
					c0.2,0.1,0.5,0.1,0.7,0.1c0.3,0,0.5-0.1,0.7-0.1l11.9,20.6l12.4,21.4l12.5,21.6l12.5,21.7H-51.7z M48.6,621.9l-12.5-21.6
					l-12.5-21.6L11,556.8l-11.6-20.2c0.4-0.3,0.7-0.7,0.7-1.3H97c0.1,0.5,0.3,1,0.7,1.3L48.6,621.9z M73.5,491.6l24.2,42
					c-0.4,0.3-0.7,0.7-0.7,1.3H0.1c-0.1-0.5-0.3-1-0.7-1.3l11.5-19.9l12.8-22.1L37.7,467l11.6,20c-0.5,0.3-0.8,0.9-0.8,1.5
					c0,1.1,0.9,1.9,1.9,1.9c1,0,1.8-0.7,1.9-1.7h19.6L73.5,491.6z M72.2,488.3l-10.7-18.5l38.5-66.8c0.2,0.1,0.5,0.1,0.7,0.1
					c0.3,0,0.5-0.1,0.7-0.1l11.9,20.6l12.4,21.4l12.3,21.4l2,3.4l-10.7,18.5H72.2z M174.3,448.1l-10.4,18l-9.6-16.7
					c0.4-0.3,0.7-0.7,0.7-1.3H174.3z M153.1,449.7c0.3,0,0.5-0.1,0.7-0.1l9.8,17l-11.7,20.3c-0.2-0.1-0.5-0.2-0.8-0.2
					c-0.3,0-0.5,0.1-0.7,0.1l-9.8-17l11.7-20.3C152.6,449.7,152.8,449.7,153.1,449.7z M130,488.3l10.4-18l9.6,16.7
					c-0.4,0.3-0.7,0.7-0.7,1.3H130z M129.7,488.8h19.6c0.1,0.9,0.9,1.7,1.9,1.7c1.1,0,1.9-0.9,1.9-1.9c0-0.6-0.3-1.2-0.7-1.5
					l11.5-20l1.5,2.7l36.8,63.9c-0.4,0.3-0.6,0.7-0.7,1.3h-96.9c-0.1-0.5-0.3-1-0.7-1.3L129.7,488.8z M103.9,536.6
					c0.4-0.3,0.7-0.7,0.7-1.3h96.9c0.1,0.5,0.3,0.9,0.7,1.3l-49.2,85.3l-25-43.2L103.9,536.6z M153.6,622.1l49.2-85.3
					c0.2,0.1,0.5,0.1,0.7,0.1c0.3,0,0.5-0.1,0.7-0.1l11.8,20.4l12.5,21.6l12.6,21.8l12.4,21.5H153.6z M253.9,621.9L241.2,600
					l-12.4-21.4L216.4,557l-11.8-20.4c0.4-0.3,0.7-0.7,0.7-1.3h98.4L253.9,621.9z M303.8,534.8h-98.4c-0.1-0.5-0.3-1-0.7-1.3
					l11.3-19.7l12.9-22.3l24.9-43.2l25,43.2L303.8,534.8z M253.4,448.1l-37.7,65.3l-11.5,19.9c-0.2-0.1-0.5-0.1-0.7-0.1
					c-0.3,0-0.5,0.1-0.7,0.1l-24.2-42l-12.7-21.9l-1.6-2.8l10.7-18.5H253.4z M174.6,447.6H155c-0.1-0.9-0.9-1.7-1.9-1.7
					c-1.1,0-1.9,0.9-1.9,1.9c0,0.6,0.3,1.2,0.7,1.5l-11.5,20l-1.9-3.3l-12.2-21.2l-12.5-21.6L102,402.8c0.4-0.3,0.7-0.7,0.7-1.3
					h96.9c0.1,0.5,0.3,1,0.7,1.3L174.6,447.6z M176.2,357.8l24.2,42c-0.4,0.3-0.7,0.7-0.7,1.3h-96.9c-0.1-0.5-0.3-1-0.7-1.3
					l11.4-19.8l12.8-22.2l14.2-24.5l11.6,20c-0.5,0.3-0.8,0.9-0.8,1.5c0,1.1,0.9,1.9,1.9,1.9c1,0,1.8-0.7,1.9-1.7h19.6L176.2,357.8z
					 M174.9,354.5l-10.7-18.5l38.5-66.8c0.2,0.1,0.5,0.1,0.7,0.1c0.3,0,0.5-0.1,0.7-0.1l11.8,20.4l12.5,21.6l12.6,21.8l12.4,21.5
					H174.9z M253.9,354.3l-12.6-21.9L228.9,311l-12.5-21.6L204.6,269c0.4-0.3,0.7-0.7,0.7-1.3h98.4L253.9,354.3z"/>
			</g>
		</g>
	</g>
</g>
<g>
	<g>
		<defs>
			<rect id="SVGID_13_" x="201.5" y="267.5" width="201.5" height="267.5"/>
		</defs>
		<clipPath id="SVGID_14_">
			<use xlink:href="#SVGID_13_"  style="overflow:visible;"/>
		</clipPath>
		<g class="st6">
			<g>
				<defs>
					<rect id="SVGID_15_" x="199.7" y="267.5" width="205.3" height="267.6"/>
				</defs>
				<clipPath id="SVGID_16_">
					<use xlink:href="#SVGID_15_"  style="overflow:visible;"/>
				</clipPath>
				<path class="st7" d="M506.1,267.8l-0.1-0.2l0.1-0.3h-0.3l-25.1-43.5l-25.1-43.5l0.2-0.3h-0.3l-0.1-0.3l-0.1,0.3H354.7l-0.1-0.3
					l-0.1,0.3h-0.3l0.1,0.2L305,265.7c-0.2-0.1-0.5-0.1-0.7-0.1c-1.1,0-1.9,0.9-1.9,1.9s0.9,1.9,1.9,1.9c0.3,0,0.5-0.1,0.7-0.1
					l24.2,42l1.4,2.5H274l25.7-44.5c0.2,0.1,0.5,0.1,0.7,0.1c1.1,0,1.9-0.9,1.9-1.9s-0.9-1.9-1.9-1.9c-0.3,0-0.5,0.1-0.7,0.1
					l-24.2-42l-25.1-43.5l0.2-0.3h-0.3l-0.1-0.3l-0.1,0.3H149.4l-0.1-0.3l-0.1,0.3h-0.3l0.1,0.2l-50.2,87.1h-0.3l0.1,0.2l-0.1,0.3
					h0.3l25.1,43.5l25.1,43.5l-0.2,0.3h0.3l0.1,0.3l0.1-0.3H228l-25.7,44.5c-0.2-0.1-0.5-0.1-0.7-0.1c-1.1,0-1.9,0.9-1.9,1.9
					c0,1.1,0.9,1.9,1.9,1.9c0.3,0,0.5-0.1,0.7-0.1l24.2,42l1.4,2.5h-78.6l-0.1-0.3l-0.1,0.3h-0.3l0.1,0.2l-50.2,87.1h-0.3l0.1,0.2
					l-0.1,0.3h0.3l25.1,43.5l25.1,43.5l-0.2,0.3h0.3l0.1,0.3l0.1-0.3h100.4l0.1,0.3l0.1-0.3h0.3l-0.1-0.2l49.3-85.5
					c0.2,0.1,0.5,0.1,0.7,0.1c1.1,0,1.9-0.9,1.9-1.9c0-1.1-0.9-1.9-1.9-1.9c-0.3,0-0.5,0.1-0.7,0.1l-24.2-42l-1.4-2.5h56.6
					L305,533.3c-0.2-0.1-0.5-0.1-0.7-0.1c-1.1,0-1.9,0.9-1.9,1.9c0,1.1,0.9,1.9,1.9,1.9c0.3,0,0.5-0.1,0.7-0.1l24.2,42l25.1,43.5
					l-0.2,0.3h0.3l0.1,0.3l0.1-0.3h100.4l0.1,0.3l0.1-0.3h0.3l-0.1-0.2l50.2-87.1h0.3l-0.1-0.2l0.1-0.3h-0.3l-25.1-43.5l-25.1-43.5
					l0.2-0.3h-0.3l-0.1-0.3l-0.1,0.3h-78.5l25.7-44.5c0.2,0.1,0.5,0.1,0.7,0.1c1.1,0,1.9-0.9,1.9-1.9c0-1.1-0.9-1.9-1.9-1.9
					c-0.3,0-0.5,0.1-0.7,0.1l-24.2-42l-1.4-2.5h78.6l0.1,0.3l0.1-0.3h0.3l-0.1-0.2l50.2-87.1H506.1z M505.3,267.3h-98.4
					c-0.1-0.5-0.3-1-0.7-1.3l11.3-19.7l12.9-22.3l24.9-43.2l25,43.2L505.3,267.3z M356.5,354.5c-0.1-0.5-0.3-0.9-0.7-1.3l9.6-16.7
					l10.4,18H356.5z M350.8,314.3c0.1,0.5,0.3,0.9,0.7,1.3l-9.6,16.7l-10.4-18H350.8z M352,315.8c0.2,0.1,0.5,0.1,0.7,0.1
					c0.3,0,0.5-0.1,0.7-0.1l11.7,20.3l-9.8,17c-0.2-0.1-0.5-0.1-0.7-0.1c-0.3,0-0.5,0.1-0.7,0.1l-11.7-20.3L352,315.8z M454.9,180.5
					l-37.7,65.3l-11.5,19.9c-0.2-0.1-0.5-0.1-0.7-0.1c-0.3,0-0.5,0.1-0.7,0.1l-24.2-42l-12.7-21.9L355,180.5H454.9z M354.6,180.7
					l12.4,21.4l36.8,63.9c-0.4,0.3-0.6,0.7-0.7,1.3h-96.9c-0.1-0.5-0.3-1-0.7-1.3L354.6,180.7z M329.6,311l-24.2-42
					c0.4-0.3,0.7-0.7,0.7-1.3h96.9c0.1,0.5,0.3,0.9,0.7,1.3l-38.4,66.6l-11.6-20c0.5-0.3,0.8-0.9,0.8-1.5c0-1.1-0.9-1.9-1.9-1.9
					c-1,0-1.8,0.7-1.9,1.7h-19.6L329.6,311z M330.9,314.3l10.7,18.5l-27,46.8l-11.6,20c-0.2-0.1-0.5-0.1-0.7-0.1
					c-0.3,0-0.5,0.1-0.7,0.1l-24.2-42l-12.5-21.7l-1.8-3.1l10.7-18.5H330.9z M253.8,488.3c-0.1-0.5-0.3-0.9-0.7-1.3l9.6-16.7
					l10.4,18H253.8z M248.1,448.1c0.1,0.5,0.3,0.9,0.7,1.3l-9.6,16.7l-10.4-18H248.1z M249.3,449.6c0.2,0.1,0.5,0.1,0.7,0.1
					c0.3,0,0.5-0.1,0.7-0.1l11.7,20.3l-9.8,16.9c-0.2-0.1-0.5-0.1-0.7-0.1c-0.3,0-0.5,0.1-0.7,0.1l-11.7-20.3L249.3,449.6z
					 M228.8,354.5l10.4-18l9.6,16.7c-0.4,0.3-0.7,0.7-0.7,1.3H228.8z M250,352.9c-0.3,0-0.5,0.1-0.7,0.1l-9.8-17l11.7-20.3
					c0.2,0.1,0.5,0.2,0.8,0.2c0.3,0,0.5-0.1,0.7-0.1l9.8,17L250.8,353C250.6,352.9,250.3,352.9,250,352.9z M273.1,314.3l-10.4,18
					l-9.6-16.7c0.4-0.3,0.7-0.7,0.7-1.3H273.1z M273.4,313.8h-19.6c-0.1-0.9-0.9-1.7-1.9-1.7c-1.1,0-1.9,0.9-1.9,1.9
					c0,0.6,0.3,1.2,0.7,1.5l-11.5,20l-1.7-2.9L225.1,311l-12.6-21.8L200.8,269c0.4-0.3,0.7-0.7,0.7-1.3h96.9c0.1,0.5,0.3,1,0.7,1.3
					L273.4,313.8z M299.2,266c-0.4,0.3-0.7,0.7-0.7,1.3h-96.9c-0.1-0.5-0.3-1-0.7-1.3l11.5-19.9l12.8-22.1l24.9-43.2l25,43.2
					L299.2,266z M249.6,180.5L212,245.6l-11.6,20.1c-0.2-0.1-0.5-0.1-0.7-0.1c-0.3,0-0.5,0.1-0.7,0.1l-24.2-42L162,201.8l-12.3-21.3
					H249.6z M149.3,180.7l12.4,21.4l36.8,63.9c-0.4,0.3-0.6,0.7-0.7,1.3H99.4L149.3,180.7z M99.4,267.8h98.4
					c0.1,0.5,0.3,0.9,0.7,1.3l-49.2,85.3l-25-43.2L99.4,267.8z M149.8,354.5l49.2-85.3c0.2,0.1,0.5,0.1,0.7,0.1
					c0.3,0,0.5-0.1,0.7-0.1l11.9,20.6l12.4,21.4l12.5,21.6l1.8,3.2l-10.7,18.5H149.8z M228.6,355h19.6c0.1,0.9,0.9,1.7,1.9,1.7
					c1.1,0,1.9-0.9,1.9-1.9c0-0.6-0.3-1.2-0.7-1.5l11.5-20l1.8,3.1l36.6,63.4c-0.4,0.3-0.6,0.7-0.7,1.3h-96.9
					c-0.1-0.5-0.3-1-0.7-1.3L228.6,355z M227,444.8l-24.2-42c0.4-0.3,0.7-0.7,0.7-1.3h96.9c0.1,0.5,0.3,1,0.7,1.3l-38.4,66.6
					l-11.6-20c0.5-0.3,0.8-0.9,0.8-1.5c0-1.1-0.9-1.9-1.9-1.9c-1,0-1.8,0.7-1.9,1.7h-19.6L227,444.8z M228.3,448.1l10.7,18.5
					L212,513.2l-11.6,20.1c-0.2-0.1-0.5-0.1-0.7-0.1c-0.3,0-0.5,0.1-0.7,0.1l-24.2-42L162,469.4l-12.3-21.3H228.3z M149.3,448.3
					l12.4,21.4l36.8,63.9c-0.4,0.3-0.6,0.7-0.7,1.3H99.4L149.3,448.3z M99.4,535.3h98.4c0.1,0.5,0.3,0.9,0.7,1.3l-49.2,85.3
					l-25-43.2L99.4,535.3z M149.8,622.1l49.2-85.3c0.2,0.1,0.5,0.1,0.7,0.1c0.3,0,0.5-0.1,0.7-0.1l11.9,20.6l12.4,21.4l12.5,21.6
					l12.5,21.7H149.8z M250.1,621.9l-12.5-21.6l-12.5-21.6l-12.6-21.8l-11.6-20.2c0.4-0.3,0.7-0.7,0.7-1.3h96.9
					c0.1,0.5,0.3,1,0.7,1.3L250.1,621.9z M275,491.6l24.2,42c-0.4,0.3-0.7,0.7-0.7,1.3h-96.9c-0.1-0.5-0.3-1-0.7-1.3l11.5-19.9
					l12.8-22.1l14.2-24.5l11.6,20c-0.5,0.3-0.8,0.9-0.8,1.5c0,1.1,0.9,1.9,1.9,1.9c1,0,1.8-0.7,1.9-1.7h19.6L275,491.6z
					 M273.7,488.3L263,469.9l38.5-66.8c0.2,0.1,0.5,0.1,0.7,0.1c0.3,0,0.5-0.1,0.7-0.1l11.9,20.6l12.4,21.4l12.3,21.4l2,3.4
					l-10.7,18.5H273.7z M375.8,448.1l-10.4,18l-9.6-16.7c0.4-0.3,0.7-0.7,0.7-1.3H375.8z M354.6,449.7c0.3,0,0.5-0.1,0.7-0.1l9.8,17
					l-11.7,20.3c-0.2-0.1-0.5-0.2-0.8-0.2c-0.3,0-0.5,0.1-0.7,0.1l-9.8-17l11.7-20.3C354.1,449.7,354.3,449.7,354.6,449.7z
					 M331.5,488.3l10.4-18l9.6,16.7c-0.4,0.3-0.7,0.7-0.7,1.3H331.5z M331.2,488.8h19.6c0.1,0.9,0.9,1.7,1.9,1.7
					c1.1,0,1.9-0.9,1.9-1.9c0-0.6-0.3-1.2-0.7-1.5l11.5-20l1.5,2.7l36.8,63.9c-0.4,0.3-0.6,0.7-0.7,1.3h-96.9
					c-0.1-0.5-0.3-1-0.7-1.3L331.2,488.8z M305.4,536.6c0.4-0.3,0.7-0.7,0.7-1.3h96.9c0.1,0.5,0.3,0.9,0.7,1.3l-49.2,85.3l-25-43.2
					L305.4,536.6z M355.1,622.1l49.2-85.3c0.2,0.1,0.5,0.1,0.7,0.1c0.3,0,0.5-0.1,0.7-0.1l11.8,20.4l12.5,21.6l12.6,21.8l12.4,21.5
					H355.1z M455.4,621.9L442.7,600l-12.4-21.4L417.9,557l-11.8-20.4c0.4-0.3,0.7-0.7,0.7-1.3h98.4L455.4,621.9z M505.3,534.8h-98.4
					c-0.1-0.5-0.3-1-0.7-1.3l11.3-19.7l12.9-22.3l24.9-43.2l25,43.2L505.3,534.8z M454.9,448.1l-37.7,65.3l-11.5,19.9
					c-0.2-0.1-0.5-0.1-0.7-0.1c-0.3,0-0.5,0.1-0.7,0.1l-24.2-42l-12.7-21.9l-1.6-2.8l10.7-18.5H454.9z M376.1,447.6h-19.6
					c-0.1-0.9-0.9-1.7-1.9-1.7c-1.1,0-1.9,0.9-1.9,1.9c0,0.6,0.3,1.2,0.7,1.5l-11.5,20L340,466l-12.2-21.2l-12.5-21.6l-11.8-20.4
					c0.4-0.3,0.7-0.7,0.7-1.3h96.9c0.1,0.5,0.3,1,0.7,1.3L376.1,447.6z M377.7,357.8l24.2,42c-0.4,0.3-0.7,0.7-0.7,1.3h-96.9
					c-0.1-0.5-0.3-1-0.7-1.3l11.4-19.8l12.8-22.2l14.2-24.5l11.6,20c-0.5,0.3-0.8,0.9-0.8,1.5c0,1.1,0.9,1.9,1.9,1.9
					c1,0,1.8-0.7,1.9-1.7h19.6L377.7,357.8z M376.4,354.5l-10.7-18.5l38.5-66.8c0.2,0.1,0.5,0.1,0.7,0.1c0.3,0,0.5-0.1,0.7-0.1
					l11.8,20.4l12.5,21.6l12.6,21.8l12.4,21.5H376.4z M455.4,354.3l-12.6-21.9L430.4,311l-12.5-21.6L406.1,269
					c0.4-0.3,0.7-0.7,0.7-1.3h98.4L455.4,354.3z"/>
			</g>
		</g>
	</g>
</g>
</svg>
