<?xml version="1.0" encoding="utf-8"?>
<!-- Generator: Adobe Illustrator 21.0.0, SVG Export Plug-In . SVG Version: 6.00 Build 0)  -->
<svg version="1.1" id="Layer_1" xmlns="http://www.w3.org/2000/svg" xmlns:xlink="http://www.w3.org/1999/xlink" x="0px" y="0px"
	 viewBox="0 0 192.9 183" style="enable-background:new 0 0 192.9 183;" xml:space="preserve">
<style type="text/css">
	.st0{fill:#9AB4D4;}
	.st1{fill:#EF8F5C;}
	.st2{fill:#253D66;}
	.st3{clip-path:url(#SVGID_2_);fill:url(#SVGID_3_);}
	.st4{opacity:0.5;clip-path:url(#SVGID_2_);}
	.st5{fill:#2B5353;}
	.st6{fill:#E5EFC6;}
	.st7{fill:#103333;}
	.st8{fill:#58BF97;}
	.st9{fill:#FFFFFF;}
</style>
<g>
	<g>
		<g>
			<path class="st0" d="M31.6,2.3h7.9C49.2,2.3,56,7.5,56,19.5v0.1c0,11.5-6.4,17-15.4,17.6h-0.1v16h-8.9V2.3z M40.5,29
				c3.7-0.2,6.6-2.9,6.6-9.1v-0.1c0-6.5-2.5-9.2-6.3-9.2h-0.3L40.5,29L40.5,29z"/>
			<path class="st0" d="M59.6,2.3h8.9v42.5h9.4v8.4H59.6V2.3z"/>
			<path class="st0" d="M88.2,2.2h9.5l9.7,51.1h-8.9l-1.7-10.1h-8.1l-1.6,10.1h-8.6L88.2,2.2z M95.5,35.1l-2.7-16.8L90,35.1H95.5z"
				/>
			<path class="st0" d="M114,33.2l-9.5-30.9h9.2l4.8,19.1l4.9-19.1h9l-9.5,30.9v20.1H114V33.2z"/>
			<path class="st1" d="M17.3,66.2h8.8l6.3,18.6l6.3-18.6h8.8v51h-8.5V86.4l-6.5,19.3h-0.1l-6.5-19.3v30.8h-8.5V66.2z"/>
			<path class="st1" d="M59.8,66.1h9.5l9.7,51.1H70l-1.7-10.1h-8.1l-1.6,10.1h-8.6L59.8,66.1z M67,99.1l-2.7-16.8l-2.8,16.8H67z"/>
			<path class="st1" d="M81.6,66.2h8.9v21.3l7.2-21.3h10l-8.6,21.5l8.7,29.4H98l-5.5-19.3l-2,5.6v13.7h-8.9V66.2z"/>
			<path class="st1" d="M110.9,66.2h19.5v8.4h-10.6v12.7h9.4v8.4h-9.4v13h10.8v8.4h-19.7V66.2z"/>
			<path class="st2" d="M0,130.2h8.9v42.5h9.4v8.4H0V130.2z"/>
			<path class="st2" d="M21.8,130.2h19.5v8.4H30.7v12.7h9.4v8.4h-9.4v13h10.8v8.4H21.8V130.2z"/>
			<path class="st2" d="M53,130h9.5l9.7,51.1h-8.9L61.6,171h-8.1l-1.6,10.1h-8.6L53,130z M60.3,163l-2.7-16.8L54.8,163H60.3z"/>
			<path class="st2" d="M74.8,130.2H84c9.1,0,15.7,4.8,15.7,16.2v0.7c0,6.6-2.6,10.8-6,13.4l6.8,20.7h-9.5l-5.8-17.8
				c-0.1,0-0.1,0-0.1,0h-1.5v17.8h-8.9V130.2z M84.1,155.3c3.9,0,6.7-2.3,6.7-8.2v-0.6c0-6.4-3.1-8.1-6.9-8.1h-0.2v16.9H84.1z"/>
			<path class="st2" d="M103.8,130.2h8.3l9,25.8v-25.8h8.7v51h-7.9l-9.4-27v27h-8.7V130.2z"/>
		</g>
		<g>
			<defs>
				<rect id="SVGID_1_" x="144" width="48.8" height="183"/>
			</defs>
			<clipPath id="SVGID_2_">
				<use xlink:href="#SVGID_1_"  style="overflow:visible;"/>
			</clipPath>
			<linearGradient id="SVGID_3_" gradientUnits="userSpaceOnUse" x1="168.4579" y1="-26.0541" x2="168.4579" y2="189.5113">
				<stop  offset="0" style="stop-color:#9AB4D4"/>
				<stop  offset="0.2649" style="stop-color:#EF8F5C"/>
				<stop  offset="0.6312" style="stop-color:#236B8F"/>
				<stop  offset="1" style="stop-color:#253D66"/>
			</linearGradient>
			<rect x="144" class="st3" width="48.8" height="183"/>
			<g class="st4">
				<g>
					<g>
						<polygon class="st5" points="140.8,29.8 168.5,45.7 168.5,13.8 154.6,21.8 						"/>
					</g>
					<g>
						<polygon class="st6" points="168.5,13.8 196.1,29.8 196.1,-2.1 182.3,5.8 						"/>
					</g>
					<g>
						<polygon class="st7" points="168.5,13.8 140.8,29.8 140.8,-2.1 154.6,5.8 						"/>
					</g>
					<polygon class="st8" points="168.5,45.7 182.3,37.8 196.1,29.8 168.5,13.8 					"/>
					<g>
						<polygon class="st8" points="140.8,-2.1 168.5,13.8 168.5,-18.1 154.6,-10.1 						"/>
					</g>
					<polygon class="st5" points="168.5,13.8 182.3,5.9 196.1,-2.1 168.5,-18.1 					"/>
				</g>
				<g>
					<g>
						<polygon class="st5" points="140.8,68.1 168.5,84.1 168.5,52.2 154.6,60.2 						"/>
					</g>
					<g>
						<polygon class="st6" points="168.5,52.2 196.1,68.1 196.1,36.2 182.3,44.2 						"/>
					</g>
					<g>
						<polygon class="st7" points="168.5,52.2 140.8,68.1 140.8,36.2 154.6,44.2 						"/>
					</g>
					<polygon class="st8" points="168.5,84.1 182.3,76.1 196.1,68.1 168.5,52.2 					"/>
					<g>
						<polygon class="st8" points="140.8,36.2 168.5,52.2 168.5,20.3 154.6,28.2 						"/>
					</g>
					<polygon class="st5" points="168.5,52.2 182.3,44.2 196.1,36.2 168.5,20.3 					"/>
				</g>
				<g>
					<g>
						<polygon class="st5" points="140.8,106.5 168.5,122.4 168.5,90.5 154.6,98.5 						"/>
					</g>
					<g>
						<polygon class="st6" points="168.5,90.5 196.1,106.5 196.1,74.6 182.3,82.6 						"/>
					</g>
					<g>
						<polygon class="st7" points="168.5,90.5 140.8,106.5 140.8,74.6 154.6,82.6 						"/>
					</g>
					<polygon class="st8" points="168.5,122.4 182.3,114.5 196.1,106.5 168.5,90.5 					"/>
					<g>
						<polygon class="st8" points="140.8,74.6 168.5,90.5 168.5,58.6 154.6,66.6 						"/>
					</g>
					<polygon class="st5" points="168.5,90.5 182.3,82.6 196.1,74.6 168.5,58.6 					"/>
				</g>
				<g>
					<g>
						<polygon class="st5" points="140.8,144.8 168.5,160.8 168.5,128.9 154.6,136.9 						"/>
					</g>
					<g>
						<polygon class="st6" points="168.5,128.9 196.1,144.8 196.1,112.9 182.3,120.9 						"/>
					</g>
					<g>
						<polygon class="st7" points="168.5,128.9 140.8,144.8 140.8,112.9 154.6,120.9 						"/>
					</g>
					<polygon class="st8" points="168.5,160.8 182.3,152.8 196.1,144.8 168.5,128.9 					"/>
					<g>
						<polygon class="st8" points="140.8,112.9 168.5,128.9 168.5,97 154.6,104.9 						"/>
					</g>
					<polygon class="st5" points="168.5,128.9 182.3,120.9 196.1,112.9 168.5,97 					"/>
				</g>
				<g>
					<g>
						<polygon class="st5" points="140.8,183.2 168.5,199.1 168.5,167.2 154.6,175.2 						"/>
					</g>
					<g>
						<polygon class="st6" points="168.5,167.2 196.1,183.2 196.1,151.3 182.3,159.3 						"/>
					</g>
					<g>
						<polygon class="st7" points="168.5,167.2 140.8,183.2 140.8,151.3 154.6,159.3 						"/>
					</g>
					<polygon class="st8" points="168.5,199.1 182.3,191.2 196.1,183.2 168.5,167.2 					"/>
					<g>
						<polygon class="st8" points="140.8,151.3 168.5,167.2 168.5,135.3 154.6,143.3 						"/>
					</g>
					<polygon class="st5" points="168.5,167.2 182.3,159.3 196.1,151.3 168.5,135.3 					"/>
				</g>
			</g>
		</g>
		<g>
			<path class="st9" d="M163,41.6l4.7-10.7c1.4-3.2,1.9-4.8,1.9-6.1c0-1.4-0.9-2.4-2.5-2.4c-1.3,0-2.5,0.5-3.6,1.1v-4.7
				c1.3-0.7,2.8-1.1,4.6-1.1c3.5,0,6.1,2.1,6.1,6.2v0.2c0,2.1-0.6,3.8-2.2,7.5l-4,9.2h6v4.8H163V41.6z"/>
			<path class="st9" d="M161.6,72.1v-1.5c0-9.6,2.4-13.5,6.8-13.5c4.4,0,6.8,3.9,6.8,13.5v1.5c0,9.6-2.5,13.5-6.8,13.5
				C164,85.6,161.6,81.7,161.6,72.1z M170.5,72.1v-1.4c0-7.8-0.9-9.1-2.1-9.1c-1.1,0-2.1,1.3-2.1,9.1v1.4c0,7.8,0.9,9.1,2.1,9.1
				C169.6,81.2,170.5,79.9,170.5,72.1z"/>
			<path class="st9" d="M166.9,102.2l-2.8,0.9v-4.9l4.3-1.3h3.4v27.9h-4.9V102.2z"/>
			<path class="st9" d="M169,141.5h-6.1v-4.9h10.8v3.4l-4.8,24.3h-4.7L169,141.5z"/>
		</g>
	</g>
</g>
</svg>
