<?xml version="1.0" encoding="utf-8"?>
<!-- Generator: Adobe Illustrator 21.1.0, SVG Export Plug-In . SVG Version: 6.00 Build 0)  -->
<svg version="1.1" id="Layer_1" xmlns="http://www.w3.org/2000/svg" xmlns:xlink="http://www.w3.org/1999/xlink" x="0px" y="0px"
	 viewBox="0 0 587.6 557.5" style="enable-background:new 0 0 587.6 557.5;" xml:space="preserve">
<style type="text/css">
	.st0{fill:#9AB4D4;}
	.st1{fill:#EF8F5C;}
	.st2{fill:#FFFFFF;}
	.st3{clip-path:url(#SVGID_2_);fill:url(#SVGID_3_);}
	.st4{opacity:0.5;clip-path:url(#SVGID_2_);}
	.st5{fill:#2B5353;}
	.st6{fill:#E5EFC6;}
	.st7{fill:#103333;}
	.st8{fill:#58BF97;}
</style>
<g>
	<g>
		<g>
			<path class="st0" d="M96.2,7h24.2c29.5,0,50.1,16,50.1,52.3v0.4c0,35-19.5,51.7-47,53.7h-0.2v48.8H96.2V7z M123.5,88.4
				c11.3-0.7,20-8.9,20-27.7v-0.4c0-19.7-7.5-28.2-19.3-28.2h-0.9v56.3H123.5z"/>
			<path class="st0" d="M181.6,7h27.1v129.5h28.6v25.7h-55.7V7z"/>
			<path class="st0" d="M268.8,6.6h28.8l29.5,155.7H300l-5.1-30.8h-24.6l-4.9,30.8h-26.2L268.8,6.6z M291,107l-8.2-51.2l-8.4,51.2
				H291z"/>
			<path class="st0" d="M347.3,101.1L318.5,7h27.9L361,65.1L375.9,7h27.3l-28.8,94v61.2h-27.1V101.1z"/>
			<path class="st1" d="M52.6,201.8h26.8l19.1,56.8l19.1-56.8h26.8V357h-25.9v-93.8L98.7,322h-0.4l-19.7-58.8V357H52.6V201.8z"/>
			<path class="st1" d="M182.1,201.3h28.8L240.4,357h-27.1l-5.1-30.8h-24.6l-4.9,30.8h-26.2L182.1,201.3z M204.2,301.8l-8.2-51.2
				l-8.4,51.2H204.2z"/>
			<path class="st1" d="M248.6,201.8h27.1v65l22-65h30.6L302,267.4l26.6,89.6h-30.2l-16.9-58.8l-6,17.1V357h-27.1V201.8z"/>
			<path class="st1" d="M338,201.8h59.4v25.7H365v38.6h28.6v25.7H365v39.5h33V357H338V201.8z"/>
			<path class="st2" d="M0,396.5h27.1v129.5h28.6v25.7H0V396.5z"/>
			<path class="st2" d="M66.5,396.5H126v25.7H93.6v38.6h28.6v25.7H93.6v39.5h33v25.7H66.5V396.5z"/>
			<path class="st2" d="M161.4,396.1h28.8l29.5,155.7h-27.1l-5.1-30.8H163l-4.9,30.8h-26.2L161.4,396.1z M183.6,496.6l-8.2-51.2
				l-8.4,51.2H183.6z"/>
			<path class="st2" d="M228,396.5h27.9c27.7,0,47.9,14.6,47.9,49.5v2c0,20.2-8,33-18.2,40.8l20.8,63h-28.8l-17.5-54.1
				c-0.2,0-0.4,0-0.4,0H255v54.1H228V396.5z M256.4,473.3c11.8,0,20.4-6.9,20.4-25.1v-1.8c0-19.5-9.3-24.6-21.1-24.6H255v51.5H256.4
				z"/>
			<path class="st2" d="M316.2,396.5h25.3l27.3,78.5v-78.5h26.4v155.3h-24l-28.6-82.3v82.3h-26.4V396.5z"/>
		</g>
		<g>
			<defs>
				<rect id="SVGID_1_" x="438.8" width="148.8" height="557.5"/>
			</defs>
			<clipPath id="SVGID_2_">
				<use xlink:href="#SVGID_1_"  style="overflow:visible;"/>
			</clipPath>
			<linearGradient id="SVGID_3_" gradientUnits="userSpaceOnUse" x1="513.2138" y1="-79.3747" x2="513.2138" y2="577.3534">
				<stop  offset="0" style="stop-color:#9AB4D4"/>
				<stop  offset="0.2649" style="stop-color:#EF8F5C"/>
				<stop  offset="0.6312" style="stop-color:#236B8F"/>
				<stop  offset="1" style="stop-color:#253D66"/>
			</linearGradient>
			<rect x="438.8" class="st3" width="148.8" height="557.5"/>
			<g class="st4">
				<g>
					<g>
						<polygon class="st5" points="429,90.8 513.2,139.3 513.2,42.1 471.1,66.4 						"/>
					</g>
					<g>
						<polygon class="st6" points="513.2,42.1 597.4,90.7 597.4,-6.5 555.3,17.8 						"/>
					</g>
					<g>
						<polygon class="st7" points="513.2,42.1 429,90.7 429,-6.5 471.1,17.8 						"/>
					</g>
					<polygon class="st8" points="513.2,139.3 555.3,115 597.4,90.7 513.2,42.1 					"/>
					<g>
						<polygon class="st8" points="429,-6.5 513.2,42.1 513.2,-55.1 471.1,-30.8 						"/>
					</g>
					<polygon class="st5" points="513.2,42.1 555.3,17.8 597.4,-6.5 513.2,-55.1 					"/>
				</g>
				<g>
					<g>
						<polygon class="st5" points="429,207.6 513.2,256.2 513.2,159 471.1,183.3 						"/>
					</g>
					<g>
						<polygon class="st6" points="513.2,159 597.4,207.6 597.4,110.4 555.3,134.7 						"/>
					</g>
					<g>
						<polygon class="st7" points="513.2,159 429,207.6 429,110.4 471.1,134.7 						"/>
					</g>
					<polygon class="st8" points="513.2,256.2 555.3,231.9 597.4,207.6 513.2,159 					"/>
					<g>
						<polygon class="st8" points="429,110.4 513.2,159 513.2,61.8 471.1,86 						"/>
					</g>
					<polygon class="st5" points="513.2,159 555.3,134.7 597.4,110.3 513.2,61.8 					"/>
				</g>
				<g>
					<g>
						<polygon class="st5" points="429,324.4 513.2,373 513.2,275.8 471.1,300.1 						"/>
					</g>
					<g>
						<polygon class="st6" points="513.2,275.8 597.4,324.4 597.4,227.2 555.3,251.5 						"/>
					</g>
					<g>
						<polygon class="st7" points="513.2,275.8 429,324.4 429,227.2 471.1,251.5 						"/>
					</g>
					<polygon class="st8" points="513.2,373 555.3,348.7 597.4,324.4 513.2,275.8 					"/>
					<g>
						<polygon class="st8" points="429,227.2 513.2,275.8 513.2,178.6 471.1,202.9 						"/>
					</g>
					<polygon class="st5" points="513.2,275.8 555.3,251.5 597.4,227.2 513.2,178.6 					"/>
				</g>
				<g>
					<g>
						<polygon class="st5" points="429,441.3 513.2,489.9 513.2,392.7 471.1,416.9 						"/>
					</g>
					<g>
						<polygon class="st6" points="513.2,392.7 597.4,441.3 597.4,344 555.3,368.3 						"/>
					</g>
					<g>
						<polygon class="st7" points="513.2,392.7 429,441.3 429,344 471.1,368.3 						"/>
					</g>
					<polygon class="st8" points="513.2,489.9 555.3,465.6 597.4,441.2 513.2,392.7 					"/>
					<g>
						<polygon class="st8" points="429,344.1 513.2,392.7 513.2,295.4 471.1,319.7 						"/>
					</g>
					<polygon class="st5" points="513.2,392.7 555.3,368.4 597.4,344 513.2,295.4 					"/>
				</g>
				<g>
					<g>
						<polygon class="st5" points="429,558.1 513.2,606.7 513.2,509.5 471.1,533.8 						"/>
					</g>
					<g>
						<polygon class="st6" points="513.2,509.5 597.4,558.1 597.4,460.9 555.3,485.2 						"/>
					</g>
					<g>
						<polygon class="st7" points="513.2,509.5 429,558.1 429,460.9 471.1,485.2 						"/>
					</g>
					<polygon class="st8" points="513.2,606.7 555.3,582.4 597.4,558.1 513.2,509.5 					"/>
					<g>
						<polygon class="st8" points="429,460.9 513.2,509.5 513.2,412.3 471.1,436.6 						"/>
					</g>
					<polygon class="st5" points="513.2,509.5 555.3,485.2 597.4,460.9 513.2,412.3 					"/>
				</g>
			</g>
		</g>
		<g>
			<path class="st2" d="M496.4,126.5L510.6,94c4.3-9.7,5.8-14.7,5.8-18.4c0-4.3-2.9-7.3-7.5-7.3c-4.1,0-7.7,1.6-10.8,3.5V57.6
				c4-2,8.5-3.5,14.1-3.5c10.7,0,18.5,6.5,18.5,18.7v0.6c0,6.4-1.7,11.5-6.6,22.8l-12,27.9h18.3v14.7h-33.9V126.5z"/>
			<path class="st2" d="M492.3,219.3v-4.6c0-29.1,7.2-41,20.8-41c13.3,0,20.8,11.9,20.8,41v4.6c0,29.1-7.5,41-20.8,41
				C499.5,260.2,492.3,248.3,492.3,219.3z M519.3,219.1v-4.3c0-23.8-2.9-27.6-6.2-27.6c-3.5,0-6.4,3.8-6.4,27.6v4.3
				c0,23.8,2.9,27.6,6.4,27.6C516.4,246.8,519.3,242.9,519.3,219.1z"/>
			<path class="st2" d="M508.2,310.6l-8.7,2.8v-14.8l13-4.1H523v84.7h-14.8V310.6z"/>
			<path class="st2" d="M493.1,476.1v-0.8c0-11.1,5.2-17.8,9.7-20.9c-5.4-3.5-8.5-9.6-8.5-17.9v-0.7c0-13.5,8.5-21.6,18.7-21.6
				c10.2,0,18.7,8.2,18.7,21.6v0.7c0,8.3-3.1,14.4-8.5,17.9c4.6,3.1,9.7,9.9,9.7,20.9v0.8c0,15.4-8.4,24.5-20,24.5
				C501.5,500.6,493.1,491.5,493.1,476.1z M519,475.3v-0.8c0-9.7-2.5-13.3-5.9-13.3c-3.4,0-5.9,3.6-5.9,13.3v0.8
				c0,10.2,2.5,13.6,5.9,13.6C516.4,488.9,519,485.6,519,475.3z M518.4,437.9v-0.7c0-8.8-2.4-11.5-5.3-11.5c-2.9,0-5.3,2.8-5.3,11.5
				v0.7c0,8.2,2,12,5.3,12C516.3,449.9,518.4,446,518.4,437.9z"/>
		</g>
	</g>
</g>
</svg>
