<?xml version="1.0" encoding="utf-8"?>
<!-- Generator: Adobe Illustrator 23.0.1, SVG Export Plug-In . SVG Version: 6.00 Build 0)  -->
<svg version="1.1" id="Layer_1" xmlns="http://www.w3.org/2000/svg" xmlns:xlink="http://www.w3.org/1999/xlink" x="0px" y="0px"
	 viewBox="0 0 587.61 557.48" style="enable-background:new 0 0 587.61 557.48;" xml:space="preserve">
<style type="text/css">
	.st0{fill:#9AB4D4;}
	.st1{fill:#EF8F5C;}
	.st2{fill:#FFFFFF;}
	.st3{clip-path:url(#SVGID_2_);fill:url(#SVGID_3_);}
	.st4{opacity:0.5;clip-path:url(#SVGID_2_);}
	.st5{fill:#2B5353;}
	.st6{fill:#E5EFC6;}
	.st7{fill:#103333;}
	.st8{fill:#58BF97;}
</style>
<g>
	<g>
		<g>
			<path class="st0" d="M96.24,7.02h24.17c29.5,0,50.13,15.97,50.13,52.34v0.44c0,35.04-19.52,51.68-47.02,53.67h-0.22v48.79H96.24
				V7.02z M123.52,88.41c11.31-0.67,19.96-8.87,19.96-27.72v-0.45c0-19.74-7.54-28.17-19.29-28.17h-0.89v56.33H123.52z"/>
			<path class="st0" d="M181.62,7.02h27.06v129.53h28.61v25.73h-55.67V7.02z"/>
			<path class="st0" d="M268.78,6.57h28.83l29.5,155.69h-27.06l-5.1-30.83h-24.62l-4.88,30.83h-26.17L268.78,6.57z M290.96,107.04
				l-8.21-51.23l-8.43,51.23H290.96z"/>
			<path class="st0" d="M347.29,101.06L318.45,7.02h27.95l14.64,58.11L375.9,7.02h27.28l-28.83,94.04v61.21h-27.06V101.06z"/>
			<path class="st1" d="M52.56,201.78h26.84l19.07,56.78l19.07-56.78h26.84v155.25h-25.95v-93.81l-19.74,58.77h-0.44L78.5,263.21
				v93.81H52.56V201.78z"/>
			<path class="st1" d="M182.07,201.33h28.83l29.5,155.69h-27.06l-5.1-30.83h-24.62l-4.88,30.83h-26.17L182.07,201.33z
				 M204.25,301.8l-8.21-51.23l-8.43,51.23H204.25z"/>
			<path class="st1" d="M248.6,201.78h27.06v64.98l21.96-64.98h30.61l-26.17,65.65l26.62,89.6H298.5l-16.86-58.77l-5.99,17.08v41.7
				H248.6V201.78z"/>
			<path class="st1" d="M337.97,201.78h59.44v25.73h-32.38v38.59h28.61v25.73h-28.61v39.48h33.05v25.73h-60.1V201.78z"/>
			<path class="st2" d="M0,396.54h27.06v129.53h28.61v25.73H0V396.54z"/>
			<path class="st2" d="M66.53,396.54h59.44v25.73H93.58v38.59h28.61v25.73H93.58v39.48h33.05v25.73h-60.1V396.54z"/>
			<path class="st2" d="M161.44,396.09h28.83l29.5,155.69h-27.06l-5.1-30.83H163l-4.88,30.83h-26.17L161.44,396.09z M183.62,496.56
				l-8.21-51.23l-8.43,51.23H183.62z"/>
			<path class="st2" d="M227.97,396.54h27.95c27.72,0,47.91,14.64,47.91,49.46v2c0,20.18-7.99,33.05-18.19,40.81l20.85,62.99h-28.83
				l-17.52-54.11c-0.22,0-0.44,0-0.44,0h-4.66v54.11h-27.06V396.54z M256.36,473.27c11.75,0,20.4-6.88,20.4-25.06v-1.78
				c0-19.52-9.32-24.62-21.07-24.62h-0.67v51.45H256.36z"/>
			<path class="st2" d="M316.23,396.54h25.28l27.28,78.51v-78.51h26.39v155.25h-23.95l-28.61-82.28v82.28h-26.39V396.54z"/>
		</g>
		<g>
			<defs>
				<rect id="SVGID_1_" x="438.82" width="148.79" height="557.48"/>
			</defs>
			<clipPath id="SVGID_2_">
				<use xlink:href="#SVGID_1_"  style="overflow:visible;"/>
			</clipPath>
			<linearGradient id="SVGID_3_" gradientUnits="userSpaceOnUse" x1="513.2138" y1="-79.3747" x2="513.2138" y2="577.3534">
				<stop  offset="0" style="stop-color:#9AB4D4"/>
				<stop  offset="0.2649" style="stop-color:#EF8F5C"/>
				<stop  offset="0.6312" style="stop-color:#236B8F"/>
				<stop  offset="1" style="stop-color:#253D66"/>
			</linearGradient>
			<rect x="438.82" class="st3" width="148.79" height="557.48"/>
			<g class="st4">
				<g>
					<g>
						<polygon class="st5" points="428.98,90.76 513.21,139.34 513.21,42.13 471.1,66.42 						"/>
					</g>
					<g>
						<polygon class="st6" points="513.21,42.15 597.45,90.73 597.45,-6.48 555.33,17.81 						"/>
					</g>
					<g>
						<polygon class="st7" points="513.21,42.15 428.98,90.73 428.98,-6.48 471.1,17.81 						"/>
					</g>
					<polygon class="st8" points="513.21,139.34 555.33,115.05 597.45,90.71 513.21,42.13 					"/>
					<g>
						<polygon class="st8" points="428.98,-6.46 513.21,42.13 513.21,-55.09 471.1,-30.8 						"/>
					</g>
					<polygon class="st5" points="513.21,42.13 555.33,17.83 597.45,-6.51 513.21,-55.09 					"/>
				</g>
				<g>
					<g>
						<polygon class="st5" points="428.98,207.6 513.21,256.18 513.21,158.97 471.1,183.26 						"/>
					</g>
					<g>
						<polygon class="st6" points="513.21,158.99 597.45,207.58 597.45,110.36 555.33,134.65 						"/>
					</g>
					<g>
						<polygon class="st7" points="513.21,158.99 428.98,207.58 428.98,110.36 471.1,134.65 						"/>
					</g>
					<polygon class="st8" points="513.21,256.18 555.33,231.89 597.45,207.55 513.21,158.97 					"/>
					<g>
						<polygon class="st8" points="428.98,110.38 513.21,158.97 513.21,61.75 471.1,86.05 						"/>
					</g>
					<polygon class="st5" points="513.21,158.97 555.33,134.68 597.45,110.34 513.21,61.75 					"/>
				</g>
				<g>
					<g>
						<polygon class="st5" points="428.98,324.44 513.21,373.03 513.21,275.81 471.1,300.1 						"/>
					</g>
					<g>
						<polygon class="st6" points="513.21,275.83 597.45,324.42 597.45,227.2 555.33,251.5 						"/>
					</g>
					<g>
						<polygon class="st7" points="513.21,275.83 428.98,324.42 428.98,227.2 471.1,251.5 						"/>
					</g>
					<polygon class="st8" points="513.21,373.03 555.33,348.73 597.45,324.4 513.21,275.81 					"/>
					<g>
						<polygon class="st8" points="428.98,227.23 513.21,275.81 513.21,178.6 471.1,202.89 						"/>
					</g>
					<polygon class="st5" points="513.21,275.81 555.33,251.52 597.45,227.18 513.21,178.6 					"/>
				</g>
				<g>
					<g>
						<polygon class="st5" points="428.98,441.29 513.21,489.87 513.21,392.66 471.1,416.95 						"/>
					</g>
					<g>
						<polygon class="st6" points="513.21,392.68 597.45,441.26 597.45,344.05 555.33,368.34 						"/>
					</g>
					<g>
						<polygon class="st7" points="513.21,392.68 428.98,441.26 428.98,344.05 471.1,368.34 						"/>
					</g>
					<polygon class="st8" points="513.21,489.87 555.33,465.58 597.45,441.24 513.21,392.66 					"/>
					<g>
						<polygon class="st8" points="428.98,344.07 513.21,392.66 513.21,295.44 471.1,319.73 						"/>
					</g>
					<polygon class="st5" points="513.21,392.66 555.33,368.36 597.45,344.02 513.21,295.44 					"/>
				</g>
				<g>
					<g>
						<polygon class="st5" points="428.98,558.13 513.21,606.71 513.21,509.5 471.1,533.79 						"/>
					</g>
					<g>
						<polygon class="st6" points="513.21,509.52 597.45,558.11 597.45,460.89 555.33,485.18 						"/>
					</g>
					<g>
						<polygon class="st7" points="513.21,509.52 428.98,558.11 428.98,460.89 471.1,485.18 						"/>
					</g>
					<polygon class="st8" points="513.21,606.71 555.33,582.42 597.45,558.08 513.21,509.5 					"/>
					<g>
						<polygon class="st8" points="428.98,460.91 513.21,509.5 513.21,412.28 471.1,436.58 						"/>
					</g>
					<polygon class="st5" points="513.21,509.5 555.33,485.21 597.45,460.87 513.21,412.28 					"/>
				</g>
			</g>
		</g>
		<g>
			<path class="st2" d="M496.42,125.86l14.25-32.6c4.35-9.78,5.8-14.73,5.8-18.48c0-4.35-2.9-7.37-7.49-7.37
				c-4.11,0-7.73,1.57-10.87,3.5V56.66c3.99-2.05,8.57-3.5,14.13-3.5c10.75,0,18.6,6.52,18.6,18.84v0.6c0,6.4-1.69,11.59-6.64,22.94
				l-12.08,28.02h18.36v14.73h-34.05V125.86z"/>
			<path class="st2" d="M492.32,219.09v-4.59c0-29.22,7.25-41.18,20.89-41.18c13.4,0,20.89,11.96,20.89,41.18v4.59
				c0,29.22-7.49,41.18-20.89,41.18C499.56,260.27,492.32,248.31,492.32,219.09z M519.49,218.97v-4.35c0-23.91-2.9-27.77-6.28-27.77
				c-3.5,0-6.4,3.86-6.4,27.77v4.35c0,23.91,2.9,27.77,6.4,27.77C516.59,246.74,519.49,242.88,519.49,218.97z"/>
			<path class="st2" d="M508.32,310.87l-8.69,2.78V298.8l13.04-4.11h10.51v85.13h-14.85V310.87z"/>
			<path class="st2" d="M497.39,498.9v-13.89c3.02,1.57,6.52,2.9,9.78,2.9c6.76,0,10.99-4.83,11.35-20.05
				c-2.42,2.05-5.19,3.62-9.54,3.62c-7.97,0-15.82-6.04-15.82-25.48v-1.69c0-18.36,8.21-29.46,19.56-29.46
				c13.16,0,19.8,11.35,19.8,39.49v2.54c0,34.9-10.02,44.32-23.79,44.32C504.27,501.19,500.77,500.23,497.39,498.9z M518.4,457.12
				v-11.11c0-13.04-2.29-17.99-5.8-17.99c-3.62,0-5.67,4.47-5.67,15.7v1.81c0,10.38,2.42,13.77,6.28,13.77
				C515.5,459.29,517.07,458.32,518.4,457.12z"/>
		</g>
	</g>
</g>
</svg>
